# xmcd CD database file
#
# Track frame offsets:
#	150
#	27702
#	43288
#	59434
#	80489
#	112391
#	134036
#	167296
#	181511
#	198760
#
# Disc length: 2863 seconds
#
# Revision: 0
# Processed by: cddbd v1.5.2PL0 Copyright (c) Steve Scherf et al.
# Submitted via: CDex 1.51
#
DISCID=8d0b2d0a
DTITLE=David T. Walker - Press On
DYEAR=1900
DGENRE=Jazz
TTITLE0=I Got Work To Do
TTITLE1=Brother, Brother
TTITLE2=Press On
TTITLE3=Didn't I Blow Your Mind
TTITLE4=With A Little Help From My Friends
TTITLE5=Superstition
TTITLE6=I Who Have Nothing
TTITLE7=If That's The Way You Feel
TTITLE8=Save Your Love For Me
TTITLE9=If You Let Me
EXTD=
EXTT0=
EXTT1=
EXTT2=
EXTT3=
EXTT4=
EXTT5=
EXTT6=
EXTT7=
EXTT8=
EXTT9=
PLAYORDER=
